# xmcd CD database file
#
# Track frame offsets:
#	150
#	17581
#	35543
#	55951
#	78387
#	96156
#	115208
#	132722
#	147916
#	172956
#	189557
#
# Disc length: 2780 seconds
#
# Revision: 0
# Processed by: cddbd v1.5.2PL0 Copyright (c) Steve Scherf et al.
# Submitted via: CDex 1.70beta2
#
DISCID=950ada0b
DTITLE=Ryota Nozaki - Life Syncopation
DYEAR=2007
DGENRE=Jazz
TTITLE0=Life syncopation
TTITLE1=Timeless
TTITLE2=Blue/green
TTITLE3=Valsa
TTITLE4=That day
TTITLE5=Afternoon breeze
TTITLE6=Rain
TTITLE7=Quiet echoes
TTITLE8=Where I live
TTITLE9=Little tree
TTITLE10=Everlasting wish
EXTD=YEAR: 2007
EXTT0=
EXTT1=
EXTT2=
EXTT3=
EXTT4=
EXTT5=
EXTT6=
EXTT7=
EXTT8=
EXTT9=
EXTT10=
PLAYORDER=
